<svg xmlns="http://www.w3.org/2000/svg" version="1.1" xmlns:xlink="http://www.w3.org/1999/xlink" xmlns:svgjs="http://svgjs.dev/svgjs" viewBox="0 0 800 800" opacity="0.8"><defs><filter id="bbburst-blur-1" x="-100%" y="-100%" width="400%" height="400%"><feGaussianBlur in="SourceGraphic" stdDeviation="1"></feGaussianBlur></filter><filter id="bbburst-blur-2" x="-100%" y="-100%" width="400%" height="400%"><feGaussianBlur in="SourceGraphic" stdDeviation="2"></feGaussianBlur></filter><filter id="bbburst-blur-3" x="-100%" y="-100%" width="400%" height="400%"><feGaussianBlur in="SourceGraphic" stdDeviation="4"></feGaussianBlur></filter><filter id="bbburst-blur-4" x="-100%" y="-100%" width="400%" height="400%"><feGaussianBlur in="SourceGraphic" stdDeviation="12"></feGaussianBlur></filter><symbol id="bbburst-shape-3" viewBox="0 0 131 127"><path d="m66 0 66 63.5L66 127 0 63.5 66 0Z"></path></symbol><symbol id="bbburst-shape-5" viewBox="0 0 145 145"><circle cx="72.5" cy="72.5" r="72.5"></circle></symbol><symbol id="bbburst-shape-8" viewBox="0 0 87 168"><path d="m12 12 31.2546 18.0749c16.4102 9.4902 20.014 31.6325 7.4603 45.8369L36.3296 92.1884c-12.5684 14.2206-8.9394 36.3916 7.5068 45.8636L75 156" stroke-width="14" stroke-linecap="round" stroke-linejoin="round"></path></symbol></defs><use xlink:href="#bbburst-shape-5" width="11.863129932961431" opacity="0.9307470656801151" transform="matrix(0.8852090753007857,0.46519339312282576,-0.46519339312282576,0.8852090753007857,938.9263419186304,388.01787086878915)" fill="#7be0ad"></use><use xlink:href="#bbburst-shape-5" width="18.51422550013678" opacity="0.8049341868188861" transform="matrix(0.9213712639787199,0.3886836681856544,-0.3886836681856544,0.9213712639787199,804.0889601212415,295.0263046418673)" fill="#8a84e2"></use><use xlink:href="#bbburst-shape-3" width="12.70009668986252" opacity="0.9406647367824585" transform="matrix(0.9872810957894784,-0.15898439513589627,0.15898439513589627,0.9872810957894784,674.2042034420955,386.1661270951224)" fill="#a2d2ff"></use><use xlink:href="#bbburst-shape-3" width="17.26918310184266" opacity="0.9144254324078326" transform="matrix(0.9957283266594716,-0.09233146531886328,0.09233146531886328,0.9957283266594716,736.0923357312541,318.91961366812313)" fill="#fe6d73"></use><use xlink:href="#bbburst-shape-8" width="40.68754039816304" opacity="0.3590522277702638" transform="matrix(0.9444016054415622,0.3287941721493857,-0.3287941721493857,0.9444016054415622,275.31715991573503,344.4129706830245)" fill="none" stroke="#ffbd9b" filter="url(#bbburst-blur-2)"></use><use xlink:href="#bbburst-shape-8" width="16.708214779313778" opacity="0.8826832676758771" transform="matrix(0.9218361835241133,-0.38757973469429124,0.38757973469429124,0.9218361835241133,522.961545886467,408.0935586333849)" fill="none" stroke="#a2d2ff"></use><use xlink:href="#bbburst-shape-5" width="24.707604906786777" opacity="0.6896009629936806" transform="matrix(0.7281118279901614,-0.6854583619307781,0.6854583619307781,0.7281118279901614,257.7892888154407,346.1976479075379)" fill="#a2d2ff"></use><use xlink:href="#bbburst-shape-3" width="34.07394548300758" opacity="0.45032181135528004" transform="matrix(0.9999949191512029,-0.0031877377212189174,0.0031877377212189174,0.9999949191512029,720.2340061097515,-146.1899645949384)" fill="#8a84e2" filter="url(#bbburst-blur-1)"></use><use xlink:href="#bbburst-shape-8" width="56.2343257155824" opacity="0.24690783109628522" transform="matrix(0.9936158306650384,0.11281658145780554,-0.11281658145780554,0.9936158306650384,69.47664581210172,309.52576303189016)" fill="none" stroke="#a2d2ff" filter="url(#bbburst-blur-3)"></use><use xlink:href="#bbburst-shape-3" width="59.57517536525688" opacity="0.3180616166827177" transform="matrix(0.9697771876595878,0.2439922258906228,-0.2439922258906228,0.9697771876595878,538.020567539319,-191.74963448886956)" fill="#a2d2ff" filter="url(#bbburst-blur-2)"></use><use xlink:href="#bbburst-shape-3" width="37.83532938547303" opacity="0.5041178976390894" transform="matrix(0.8432518792635306,-0.537518621183047,0.537518621183047,0.8432518792635306,417.20671071878627,0.8410094223289661)" fill="#a2d2ff" filter="url(#bbburst-blur-1)"></use><use xlink:href="#bbburst-shape-3" width="20.772465117968867" opacity="0.781813628491369" transform="matrix(0.9922752468861971,-0.12405577139712833,0.12405577139712833,0.9922752468861971,713.9200223472802,187.76528416620374)" fill="#fe6d73"></use><use xlink:href="#bbburst-shape-3" width="56.031479716003716" opacity="0.26470861520994926" transform="matrix(0.9995462624788825,-0.03012090909147535,0.03012090909147535,0.9995462624788825,130.59696119573331,20.45465723995153)" fill="#fe6d73" filter="url(#bbburst-blur-2)"></use><use xlink:href="#bbburst-shape-3" width="32.60537208014594" opacity="0.6147822848440723" transform="matrix(0.8122988345628873,0.5832414623188024,-0.5832414623188024,0.8122988345628873,985.1371478272106,81.8582902111853)" fill="#ffc8dd" filter="url(#bbburst-blur-1)"></use><use xlink:href="#bbburst-shape-8" width="34.104190152540085" opacity="0.5903686594653731" transform="matrix(0.9775186488267288,0.21084897722295567,-0.21084897722295567,0.9775186488267288,757.739484999518,10.79234450879511)" fill="none" stroke="#ffbd9b" filter="url(#bbburst-blur-1)"></use><use xlink:href="#bbburst-shape-3" width="26.752328258117373" opacity="0.5382956189060137" transform="matrix(0.9951570900966664,-0.09829733480789443,0.09829733480789443,0.9951570900966664,702.7891981018604,-56.29488103004428)" fill="#7be0ad" filter="url(#bbburst-blur-1)"></use><use xlink:href="#bbburst-shape-5" width="18.49494284226202" opacity="0.874316264933862" transform="matrix(0.8675522949597546,-0.4973459716435461,0.4973459716435461,0.8675522949597546,572.1476542128717,333.6429808694986)" fill="#ffc8dd"></use><use xlink:href="#bbburst-shape-5" width="26.674815355637673" opacity="0.6439815227983574" transform="matrix(0.7937449632331062,-0.6082507158582511,0.6082507158582511,0.7937449632331062,191.68065202551932,457.04797593291806)" fill="#ffc8dd" filter="url(#bbburst-blur-1)"></use><use xlink:href="#bbburst-shape-8" width="77.36337895078904" opacity="0.1602706197050482" transform="matrix(0.999259295288269,0.038481953952368045,-0.038481953952368045,0.999259295288269,156.81179247489194,-167.61506029323493)" fill="none" stroke="#ffc8dd" filter="url(#bbburst-blur-3)"></use><use xlink:href="#bbburst-shape-3" width="18.36820234745462" opacity="0.7844077461335872" transform="matrix(0.7487792694939819,0.662819436631168,-0.662819436631168,0.7487792694939819,937.7132996244986,315.57143580659323)" fill="#ffbd9b"></use><use xlink:href="#bbburst-shape-5" width="18.173690178660593" opacity="0.8482437002475682" transform="matrix(0.8351654919436453,-0.5499987282408287,0.5499987282408287,0.8351654919436453,423.0739640453589,443.9449080130438)" fill="#a2d2ff"></use><use xlink:href="#bbburst-shape-3" width="62.35900051514919" opacity="0.11382562833957943" transform="matrix(0.999435930472138,-0.03358304455066275,0.03358304455066275,0.999435930472138,14.644660992101834,-85.47557669522354)" fill="#ffc8dd" filter="url(#bbburst-blur-3)"></use><use xlink:href="#bbburst-shape-3" width="23.502319356389023" opacity="0.7133408746978477" transform="matrix(0.9999850155646728,-0.005474362622364621,0.005474362622364621,0.9999850155646728,691.5741423336204,129.39950922864466)" fill="#a2d2ff"></use><use xlink:href="#bbburst-shape-5" width="37.135137531480325" opacity="0.4625917329507122" transform="matrix(0.7470150258096933,0.6648071534020549,-0.6648071534020549,0.7470150258096933,516.3965627104712,445.4883977063378)" fill="#7be0ad" filter="url(#bbburst-blur-1)"></use><use xlink:href="#bbburst-shape-5" width="51.81005572637275" opacity="0.49356776008308356" transform="matrix(0.9341872299721098,-0.35678315453092296,0.35678315453092296,0.9341872299721098,241.22842025687396,114.75487046766216)" fill="#8a84e2" filter="url(#bbburst-blur-1)"></use><use xlink:href="#bbburst-shape-8" width="51.819845562234974" opacity="0.19478877028912078" transform="matrix(0.8210918680462308,-0.5707960618542766,0.5707960618542766,0.8210918680462308,-199.10684135030843,192.08414933272263)" fill="none" stroke="#7be0ad" filter="url(#bbburst-blur-3)"></use><use xlink:href="#bbburst-shape-3" width="44.02734752187784" opacity="0.3946761144602958" transform="matrix(0.9697280321507036,0.24418751741463796,-0.24418751741463796,0.9697280321507036,308.458317532812,196.62954137344786)" fill="#a2d2ff" filter="url(#bbburst-blur-2)"></use><use xlink:href="#bbburst-shape-5" width="17.96693361661362" opacity="0.7625047223061836" transform="matrix(0.9992285647132919,0.039271815097021615,-0.039271815097021615,0.9992285647132919,570.7163772919538,373.48814831936454)" fill="#ffbd9b"></use><use xlink:href="#bbburst-shape-3" width="48.05764553877758" opacity="0.34983157552294974" transform="matrix(0.9269637280568409,0.37515096543520066,-0.37515096543520066,0.9269637280568409,861.1230139677282,-226.62803089147167)" fill="#a2d2ff" filter="url(#bbburst-blur-2)"></use><use xlink:href="#bbburst-shape-8" width="41.44999180418585" opacity="0.6012488100334441" transform="matrix(0.894530979301891,0.44700595865066484,-0.44700595865066484,0.894530979301891,615.200019614964,233.08874654591642)" fill="none" stroke="#7be0ad" filter="url(#bbburst-blur-1)"></use><use xlink:href="#bbburst-shape-5" width="25.366221575578315" opacity="0.6873019037768938" transform="matrix(0.9211801597942073,0.3891363683871229,-0.3891363683871229,0.9211801597942073,652.2193094609949,314.0714779988266)" fill="#a2d2ff"></use><use xlink:href="#bbburst-shape-8" width="50.60931374654564" opacity="0.24887470162776093" transform="matrix(0.935933207792013,-0.3521775554349716,0.3521775554349716,0.935933207792013,167.35835149979997,-152.89973689286126)" fill="none" stroke="#a2d2ff" filter="url(#bbburst-blur-3)"></use><use xlink:href="#bbburst-shape-3" width="24.93552265227863" opacity="0.7171032819631928" transform="matrix(0.9882454804374895,-0.15287534266478522,0.15287534266478522,0.9882454804374895,530.4124183928701,202.64724011018154)" fill="#ffbd9b"></use><use xlink:href="#bbburst-shape-5" width="18.70110897587655" opacity="0.8591090949972837" transform="matrix(0.957210767865941,0.2893916824677166,-0.2893916824677166,0.957210767865941,789.852058755122,335.84783609147615)" fill="#ffc8dd"></use><use xlink:href="#bbburst-shape-5" width="19.947726911224905" opacity="0.9036802407377651" transform="matrix(0.7142624938418065,0.6998779107036336,-0.6998779107036336,0.7142624938418065,993.6428247145777,452.47541465312764)" fill="#8a84e2"></use><use xlink:href="#bbburst-shape-5" width="14.422681464322949" opacity="0.9143684087544198" transform="matrix(0.8778807046629094,0.4788793881350018,-0.4788793881350018,0.8778807046629094,901.0743394052081,429.516679199665)" fill="#ffbd9b"></use><use xlink:href="#bbburst-shape-3" width="39.22469624357245" opacity="0.5624355216333767" transform="matrix(0.9364299617615214,0.3508545663310022,-0.3508545663310022,0.9364299617615214,714.9648191052146,32.92084300417997)" fill="#a2d2ff" filter="url(#bbburst-blur-1)"></use><use xlink:href="#bbburst-shape-8" width="23.18951887934499" opacity="0.7720398614258646" transform="matrix(0.9931841190738846,0.11655601923294985,-0.11655601923294985,0.9931841190738846,754.8080451550873,188.0255454239777)" fill="none" stroke="#fe6d73"></use><use xlink:href="#bbburst-shape-8" width="53.05813273775119" opacity="0.1823580753209837" transform="matrix(0.7651267638547403,0.643879674499182,-0.643879674499182,0.7651267638547403,678.9967311596283,-258.1085490455958)" fill="none" stroke="#ffc8dd" filter="url(#bbburst-blur-3)"></use><use xlink:href="#bbburst-shape-3" width="32.93018122254075" opacity="0.24408002386831917" transform="matrix(0.9897875650673669,0.14255025793737788,-0.14255025793737788,0.9897875650673669,759.256752600222,-349.8108117325933)" fill="#ffc8dd" filter="url(#bbburst-blur-3)"></use><use xlink:href="#bbburst-shape-3" width="15.728011291548952" opacity="0.6780701192708634" transform="matrix(0.9992447729979675,0.038857221159526695,-0.038857221159526695,0.9992447729979675,789.0151245431305,78.60263797635326)" fill="#a2d2ff"></use><use xlink:href="#bbburst-shape-5" width="22.67217535447908" opacity="0.7343311546510998" transform="matrix(0.9468843905831809,0.3215741763107201,-0.3215741763107201,0.9468843905831809,887.153542159193,153.71667636117127)" fill="#a2d2ff"></use><use xlink:href="#bbburst-shape-5" width="54.344096885865085" opacity="0.4529905488141831" transform="matrix(0.9990554867761124,0.04345266784151368,-0.04345266784151368,0.9990554867761124,521.3983372715694,-77.19176752356555)" fill="#ffbd9b" filter="url(#bbburst-blur-1)"></use><use xlink:href="#bbburst-shape-8" width="41.35367514895538" opacity="0.4693497128344789" transform="matrix(0.734811670868838,-0.6782711908631727,0.6782711908631727,0.734811670868838,-0.21162254680575643,387.0877384806268)" fill="none" stroke="#7be0ad" filter="url(#bbburst-blur-1)"></use><use xlink:href="#bbburst-shape-8" width="17.495771718432064" opacity="0.8250996214425734" transform="matrix(0.8553290197905785,0.5180851936738669,-0.5180851936738669,0.8553290197905785,975.6053455081571,280.1106769603368)" fill="none" stroke="#ffc8dd"></use><use xlink:href="#bbburst-shape-3" width="35.046273535291846" opacity="0.6397477014493219" transform="matrix(0.9742294300259641,-0.2255593440123576,0.2255593440123576,0.9742294300259641,480.64665571835474,122.96916436413994)" fill="#7be0ad" filter="url(#bbburst-blur-1)"></use><use xlink:href="#bbburst-shape-8" width="10.03087935287555" opacity="0.9522821763858954" transform="matrix(0.769225172399153,-0.6389778041117652,0.6389778041117652,0.769225172399153,527.6711507063541,449.56794506615154)" fill="none" stroke="#a2d2ff"></use><use xlink:href="#bbburst-shape-3" width="28.338455027127036" opacity="0.6300532027288792" transform="matrix(0.9915780147818881,-0.1295107740738571,0.1295107740738571,0.9915780147818881,379.9999896496334,297.8989569680081)" fill="#ffc8dd" filter="url(#bbburst-blur-1)"></use><use xlink:href="#bbburst-shape-8" width="55.0781534043473" opacity="0.4066710153270269" transform="matrix(0.9892889023624157,0.14597077674167033,-0.14597077674167033,0.9892889023624157,450.1957616298527,-54.61741037435576)" fill="none" stroke="#8a84e2" filter="url(#bbburst-blur-2)"></use><use xlink:href="#bbburst-shape-3" width="40.709096556836265" opacity="0.5604375466950552" transform="matrix(0.9000921426175191,0.43569959237782585,-0.43569959237782585,0.9000921426175191,518.1556704084107,390.21092917478023)" fill="#fe6d73" filter="url(#bbburst-blur-1)"></use><use xlink:href="#bbburst-shape-3" width="20.6234970723345" opacity="0.8123501745364681" transform="matrix(0.8253839681709285,0.564571789134395,-0.564571789134395,0.8253839681709285,848.0950933904578,382.7509578546025)" fill="#ffc8dd"></use><use xlink:href="#bbburst-shape-3" width="15.288848424228405" opacity="0.8069179091456838" transform="matrix(0.7221518975505125,-0.6917345132810666,0.6917345132810666,0.7221518975505125,327.0769483758793,486.0223370925156)" fill="#7be0ad"></use><use xlink:href="#bbburst-shape-3" width="25.243274055725173" opacity="0.7087983784794402" transform="matrix(0.9979535326834267,-0.0639433077395035,0.0639433077395035,0.9979535326834267,472.9955300235336,363.81141465995523)" fill="#ffbd9b"></use><use xlink:href="#bbburst-shape-8" width="36.97529990093886" opacity="0.5592195089832694" transform="matrix(0.9097015704516924,-0.4152626310152703,0.4152626310152703,0.9097015704516924,194.33835134136112,318.97782305346647)" fill="none" stroke="#a2d2ff" filter="url(#bbburst-blur-1)"></use><use xlink:href="#bbburst-shape-5" width="20.06020024439875" opacity="0.8453075639396262" transform="matrix(0.9766480686202282,-0.21484540967955998,0.21484540967955998,0.9766480686202282,611.687697555225,287.5641987554055)" fill="#ffbd9b"></use><use xlink:href="#bbburst-shape-3" width="39.96835616233523" opacity="0.5104111098610553" transform="matrix(0.9790303280178926,0.20371454739703224,-0.20371454739703224,0.9790303280178926,423.49416829505026,186.08761726020657)" fill="#fe6d73" filter="url(#bbburst-blur-1)"></use><use xlink:href="#bbburst-shape-3" width="20.38899902784526" opacity="0.7599324991698887" transform="matrix(0.7396560874240604,-0.672985046146295,0.672985046146295,0.7396560874240604,326.24802134831543,373.7948165284468)" fill="#a2d2ff"></use><use xlink:href="#bbburst-shape-3" width="19.743947145922842" opacity="0.8364266318714202" transform="matrix(0.9563314947875962,0.29228423166041967,-0.29228423166041967,0.9563314947875962,847.1128174403796,262.5020448694313)" fill="#7be0ad"></use><use xlink:href="#bbburst-shape-5" width="33.57022862103726" opacity="0.6458876742674967" transform="matrix(0.9308720958598387,0.36534523556426923,-0.36534523556426923,0.9308720958598387,790.7231960719072,96.16628436140331)" fill="#7be0ad" filter="url(#bbburst-blur-1)"></use><use xlink:href="#bbburst-shape-3" width="10.285247736176558" opacity="0.963601297469273" transform="matrix(0.7926673472354362,-0.6096543911321697,0.6096543911321697,0.7926673472354362,519.9336028141945,468.92716947036234)" fill="#ffc8dd"></use><use xlink:href="#bbburst-shape-5" width="54.5295533690051" opacity="0.39396457386375305" transform="matrix(0.9447961702426455,0.32765865881253625,-0.32765865881253625,0.9447961702426455,714.101613534603,-161.93519835521397)" fill="#a2d2ff" filter="url(#bbburst-blur-2)"></use><use xlink:href="#bbburst-shape-8" width="68.74315533949726" opacity="0.09742494488782416" transform="matrix(0.710654147322736,-0.7035415289042964,0.7035415289042964,0.710654147322736,-40.86902954219579,-186.9833835403586)" fill="none" stroke="#ffbd9b" filter="url(#bbburst-blur-3)"></use><use xlink:href="#bbburst-shape-5" width="57.13007157368075" opacity="0.25749402605748606" transform="matrix(0.8458090127023482,0.5334858142738934,-0.5334858142738934,0.8458090127023482,775.7767314967538,-264.72453657538836)" fill="#fe6d73" filter="url(#bbburst-blur-2)"></use><use xlink:href="#bbburst-shape-8" width="57.801849430798256" opacity="0.4037652702518083" transform="matrix(0.9183529496003937,0.3957623781516589,-0.3957623781516589,0.9183529496003937,422.1318616254689,111.75168048176312)" fill="none" stroke="#7be0ad" filter="url(#bbburst-blur-2)"></use><use xlink:href="#bbburst-shape-8" width="55.83651751075897" opacity="0.3290878563466759" transform="matrix(0.8151714206093429,-0.5792197812762836,0.5792197812762836,0.8151714206093429,40.9068069318586,47.99999798855902)" fill="none" stroke="#ffc8dd" filter="url(#bbburst-blur-2)"></use><use xlink:href="#bbburst-shape-3" width="24.90010303078114" opacity="0.7521051938744158" transform="matrix(0.7277498379943314,-0.6858426738685953,0.6858426738685953,0.7277498379943314,284.5744711055916,430.057109450196)" fill="#ffc8dd"></use><use xlink:href="#bbburst-shape-5" width="26.595640939348264" opacity="0.7147598465596514" transform="matrix(0.9657329806766521,0.2595376851892401,-0.2595376851892401,0.9657329806766521,743.1506434010171,166.3077650182762)" fill="#fe6d73"></use><use xlink:href="#bbburst-shape-3" width="27.10554541872292" opacity="0.6716909314262931" transform="matrix(0.968597547280652,0.24863385007256203,-0.24863385007256203,0.968597547280652,818.5712169441863,87.90299629951085)" fill="#7be0ad"></use><use xlink:href="#bbburst-shape-8" width="37.99720396737182" opacity="0.6188502075444613" transform="matrix(0.9998334824277111,-0.0182484907999498,0.0182484907999498,0.9998334824277111,489.7464601626166,146.16417954763614)" fill="none" stroke="#ffc8dd" filter="url(#bbburst-blur-1)"></use><use xlink:href="#bbburst-shape-3" width="82.97281202763213" opacity="-0.0064137961339754135" transform="matrix(0.9984862017390335,0.05500277208248795,-0.05500277208248795,0.9984862017390335,62.000148413817826,-306.65450690514473)" fill="#ffc8dd" filter="url(#bbburst-blur-3)"></use><use xlink:href="#bbburst-shape-3" width="18.74696098720259" opacity="0.888527305676256" transform="matrix(0.8654447637055069,-0.5010043522512747,0.5010043522512747,0.8654447637055069,530.5204351532093,365.18973110560177)" fill="#ffbd9b"></use><use xlink:href="#bbburst-shape-8" width="41.776228428448206" opacity="0.2973977962357185" transform="matrix(0.9802982231132114,-0.19752314740576749,0.19752314740576749,0.9802982231132114,32.2465789643652,195.0543441724481)" fill="none" stroke="#7be0ad" filter="url(#bbburst-blur-2)"></use><use xlink:href="#bbburst-shape-5" width="44.229416174382436" opacity="0.5363035008005692" transform="matrix(0.7871527611695245,0.6167580810846288,-0.6167580810846288,0.7871527611695245,731.4919467174401,116.07376804003803)" fill="#a2d2ff" filter="url(#bbburst-blur-1)"></use><use xlink:href="#bbburst-shape-8" width="7.790684177290907" opacity="0.982592445831593" transform="matrix(0.977593220387944,-0.21050295829638294,0.21050295829638294,0.977593220387944,701.6006972098355,395.8159617739809)" fill="none" stroke="#7be0ad"></use></svg>