<svg xmlns="http://www.w3.org/2000/svg" version="1.1" xmlns:xlink="http://www.w3.org/1999/xlink" xmlns:svgjs="http://svgjs.dev/svgjs" viewBox="0 0 2400 800" opacity="0.19"><g fill="#fc6766" transform="matrix(1,0,0,1,-1.936279296875,255.48143005371094)"><path d="M-10,10C158.75,48.541666666666664,464.58333333333337,231.04166666666666,800,195C1135.4166666666665,158.95833333333334,1266.6666666666665,-131.75,1600,-163C1933.3333333333335,-194.25,2181.25,-72.29166666666666,2400,45C2618.75,162.29166666666666,3254.1666666666665,221.875,2650,400C2045.8333333333335,578.125,156.25,795.8333333333334,-500,900" transform="matrix(1,0,0,1,0,119)" opacity="0.05"></path><path d="M-10,10C158.75,48.541666666666664,464.58333333333337,231.04166666666666,800,195C1135.4166666666665,158.95833333333334,1266.6666666666665,-131.75,1600,-163C1933.3333333333335,-194.25,2181.25,-72.29166666666666,2400,45C2618.75,162.29166666666666,3254.1666666666665,221.875,2650,400C2045.8333333333335,578.125,156.25,795.8333333333334,-500,900" transform="matrix(1,0,0,1,0,238)" opacity="1.00"></path></g></svg>